<svg width="18" height="38" viewBox="0 0 18 38" xmlns="http://www.w3.org/2000/svg">
<path d="M14.8378 1.0517C15.3615 0.409832 16.3064 0.31406 16.9483 0.83779C17.5902 1.36152 17.6859 2.30643 17.1622 2.9483L14.8378 1.0517ZM2 19.1581L0.84149 20.1109L0.060955 19.1618L0.83779 18.2098L2 19.1581ZM17.0101 35.0472C17.5363 35.687 17.4442 36.6323 16.8044 37.1585C16.1646 37.6847 15.2193 37.5926 14.6931 36.9528L17.0101 35.0472ZM17.1622 2.9483L3.16221 20.1064L0.83779 18.2098L14.8378 1.0517L17.1622 2.9483ZM14.6931 36.9528L0.84149 20.1109L3.15851 18.2053L17.0101 35.0472L14.6931 36.9528Z" fill="currentColor"/>
</svg>
