<svg width="30" height="30" viewBox="0 0 30 30" xmlns="http://www.w3.org/2000/svg">
<path d="M6.57576 1.57718L2.00749 0.0838096C1.60811 -0.0525056 1.22181 -0.0258395 0.826272 0.188116C0.133249 0.5939 -0.229648 1.53199 0.158873 2.37926C0.364213 2.77103 0.672481 3.03898 1.08316 3.18144L4.62374 4.35521L5.90836 17.4986L5.08747 22.2004C4.93774 23.1822 5.65241 23.985 6.6259 24.0688H25.9267C26.7344 24.0584 27.4805 23.4278 27.5184 22.4646C27.5077 21.6202 26.8393 20.897 25.9267 20.8636H8.47451L8.83484 18.7279H27.2113C27.9091 18.7189 28.5361 18.1789 28.6996 17.391L29.9842 9.85906C30.1086 9.0011 29.4844 8.16652 28.5962 7.98746L7.91051 5.58441L7.65358 2.96619C7.58334 2.36831 7.18053 1.78388 6.57576 1.57718Z" fill="currentColor"/>
<path d="M11.3696 27.4958C11.3696 26.1128 10.2923 24.9917 8.96331 24.9917C7.63433 24.9917 6.55698 26.1128 6.55698 27.4958C6.55698 28.8788 7.63442 30 8.96331 30C10.2923 30 11.3696 28.8788 11.3696 27.4958Z" fill="currentColor"/>
<path d="M25.4943 27.4958C25.4943 26.1128 24.4169 24.9917 23.0879 24.9917C21.759 24.9917 20.6816 26.1128 20.6816 27.4958C20.6816 28.8788 21.759 30 23.0879 30C24.4169 30 25.4943 28.8788 25.4943 27.4958Z" fill="currentColor"/>
</svg>
