<svg width="16" height="17" viewBox="0 0 16 17" xmlns="http://www.w3.org/2000/svg">
<path d="M1.76762 6.81355C1.41365 6.38961 0.783036 6.33288 0.359093 6.68684C-0.0648513 7.0408 -0.121582 7.67142 0.232382 8.09536L1.76762 6.81355ZM7.3 15L6.53238 15.6409L7.47068 16.7647L8.17622 15.4819L7.3 15ZM15.8762 1.48192C16.1424 0.997998 15.9658 0.38994 15.4819 0.123784C14.998 -0.142372 14.3899 0.0341606 14.1238 0.518081L15.8762 1.48192ZM0.232382 8.09536L6.53238 15.6409L8.06762 14.3591L1.76762 6.81355L0.232382 8.09536ZM8.17622 15.4819L15.8762 1.48192L14.1238 0.518081L6.42378 14.5181L8.17622 15.4819Z" fill="currentColor"/>
</svg>
