<svg width="29" height="25" viewBox="0 0 29 25" xmlns="http://www.w3.org/2000/svg">
<path fill-rule="evenodd" clip-rule="evenodd" d="M0.541573 0.0987409C0.313471 0.248602 0.137097 0.452524 0.063782 0.651099C-0.0211473 0.881006 -0.0213172 24.1013 0.063612 24.3318C0.137436 24.5323 0.37585 24.7974 0.581233 24.9075C0.811205 25.0308 28.204 25.0308 28.434 24.9075C29.1202 24.5397 29.1975 23.6325 28.5835 23.1517L28.3694 22.984L27.0759 22.9665L25.7824 22.9489V17.6125V12.2761L25.6547 12.0817C25.5845 11.9748 25.4379 11.8336 25.329 11.768C25.1402 11.6543 25.0447 11.6486 23.3178 11.6486C21.6052 11.6486 21.4943 11.655 21.3167 11.7648C21.2133 11.8288 21.073 11.9726 21.0051 12.0845L20.8815 12.288L20.866 17.6215L20.8504 22.955H19.3796H17.9089L17.8938 14.4824L17.8787 6.00988L17.7551 5.80642C17.6872 5.69452 17.547 5.55064 17.4435 5.4867C17.2657 5.37678 17.155 5.37044 15.4041 5.37044C13.6143 5.37044 13.5474 5.37451 13.3927 5.49205C13.3048 5.55896 13.1755 5.70016 13.1053 5.80584L12.9778 5.99802V14.4765V22.955H11.4764H9.97501V17.48C9.97501 12.0613 9.97382 12.0024 9.85767 11.7563C9.79314 11.6195 9.65626 11.4543 9.55354 11.3892C9.37546 11.2762 9.27937 11.2707 7.49795 11.2707C5.6494 11.2707 5.62707 11.2722 5.43665 11.4027C5.02118 11.6874 5.046 11.3033 5.04594 17.4471L5.04583 22.955H3.54441H2.04299L2.04163 11.9828C2.04084 5.60494 2.01868 0.915187 1.98877 0.78259C1.93019 0.52356 1.79398 0.315452 1.57143 0.144955C1.34877 -0.0256006 0.770298 -0.0515851 0.541573 0.0987409Z" fill="currentColor"/>
</svg>
