<svg width="30" height="30" viewBox="0 0 30 30" xmlns="http://www.w3.org/2000/svg">
<path d="M15 0V7.5C15 8.35248 15.3477 9.17005 15.9665 9.77284C16.5854 10.3756 17.4248 10.7143 18.3 10.7143H26V26.7857C26 27.6382 25.6523 28.4558 25.0335 29.0586C24.4146 29.6614 23.5752 30 22.7 30H7.3C6.42479 30 5.58542 29.6614 4.96655 29.0586C4.34768 28.4558 4 27.6382 4 26.7857V3.21429C4 2.3618 4.34768 1.54424 4.96655 0.941443C5.58542 0.338647 6.42479 0 7.3 0H15ZM17.2 0.535714V7.5C17.2 7.78416 17.3159 8.05668 17.5222 8.25761C17.7285 8.45855 18.0083 8.57143 18.3 8.57143H25.45L17.2 0.535714Z" fill="currentColor"/>
</svg>
