<svg width="17" height="16" viewBox="0 0 17 16" xmlns="http://www.w3.org/2000/svg">
<path d="M8.31344 16.3536C8.5087 16.5488 8.82528 16.5488 9.02055 16.3536L12.2025 13.1716C12.3978 12.9763 12.3978 12.6597 12.2025 12.4645C12.0073 12.2692 11.6907 12.2692 11.4954 12.4645L8.66699 15.2929L5.83857 12.4645C5.6433 12.2692 5.32672 12.2692 5.13146 12.4645C4.9362 12.6597 4.9362 12.9763 5.13146 13.1716L8.31344 16.3536ZM9.02055 -0.353553C8.82528 -0.548816 8.5087 -0.548816 8.31344 -0.353553L5.13146 2.82843C4.9362 3.02369 4.9362 3.34027 5.13146 3.53553C5.32672 3.7308 5.6433 3.7308 5.83857 3.53553L8.66699 0.707107L11.4954 3.53553C11.6907 3.7308 12.0073 3.7308 12.2025 3.53553C12.3978 3.34027 12.3978 3.02369 12.2025 2.82843L9.02055 -0.353553ZM9.16699 16V0H8.16699V16H9.16699Z" fill="currentColor"/>
</svg>
