<svg width="27" height="24" viewBox="0 0 27 24" xmlns="http://www.w3.org/2000/svg">
<path fill-rule="evenodd" clip-rule="evenodd" d="M16.0475 0.0398297C15.6668 0.118683 15.1678 0.384845 14.8963 0.65401C14.7665 0.782554 13.6677 2.25899 12.4545 3.93494C11.2411 5.61088 10.015 7.27194 9.72964 7.62609C9.44424 7.9803 8.70576 8.77697 8.0885 9.39653C7.47124 10.0161 6.93388 10.5845 6.89434 10.6597C6.84255 10.7583 6.8225 12.2281 6.8225 15.9228V21.0493L7.00508 21.2934C7.21839 21.5784 8.57877 22.8959 8.94858 23.1755C9.26216 23.4126 9.85035 23.7076 10.3131 23.8599C10.6362 23.9663 10.9992 23.9763 15.1999 23.995C18.3637 24.0091 19.8663 23.9939 20.1628 23.9446C20.8127 23.8367 21.4247 23.5166 21.9257 23.0225C22.1605 22.7908 22.411 22.4887 22.4821 22.351C22.5533 22.2133 23.5452 20.0308 24.6864 17.5009C25.9661 14.6641 26.8099 12.7144 26.8879 12.4138C26.9963 11.9968 27.0116 11.7666 26.9936 10.818C26.9728 9.72046 26.9706 9.70525 26.77 9.28758C26.5395 8.8077 26.0819 8.32012 25.6646 8.10978C25.0648 7.80745 24.9864 7.80219 21.0228 7.80144C18.9721 7.801 17.2942 7.78767 17.2942 7.77172C17.2942 7.75582 17.6666 6.82147 18.1219 5.69537C19.077 3.33258 19.1488 3.04884 18.9881 2.27151C18.8211 1.46432 18.4147 0.810215 17.8364 0.417888C17.3258 0.0714337 16.6176 -0.0782 16.0475 0.0398297ZM1.63651 9.70269C0.999258 9.90777 0.506007 10.3269 0.17675 10.9432L0 11.274V16.3118V21.3497L0.185318 21.7106C0.405986 22.1402 0.930271 22.649 1.34857 22.8395C1.59837 22.9533 1.76439 22.9768 2.31648 22.9768C2.92726 22.9768 3.01345 22.9616 3.34956 22.7937C3.80188 22.5679 4.2382 22.1176 4.46286 21.645L4.63295 21.2871V16.3105V11.3339L4.42669 10.9208C4.02933 10.1249 3.31465 9.66902 2.41167 9.63547C2.10127 9.62396 1.80006 9.65012 1.63651 9.70269Z" fill="currentColor"/>
</svg>
