<svg width="18" height="18" viewBox="0 0 18 18" xmlns="http://www.w3.org/2000/svg">
<path d="M17.833 1C17.833 0.723858 17.6091 0.5 17.333 0.5H12.833C12.5569 0.5 12.333 0.723858 12.333 1C12.333 1.27614 12.5569 1.5 12.833 1.5H16.833V5.5C16.833 5.77614 17.0569 6 17.333 6C17.6091 6 17.833 5.77614 17.833 5.5V1ZM0.833008 17C0.833008 17.2761 1.05687 17.5 1.33301 17.5H5.83301C6.10915 17.5 6.33301 17.2761 6.33301 17C6.33301 16.7239 6.10915 16.5 5.83301 16.5H1.83301V12.5C1.83301 12.2239 1.60915 12 1.33301 12C1.05687 12 0.833008 12.2239 0.833008 12.5V17ZM16.9795 0.646447L0.979454 16.6464L1.68656 17.3536L17.6866 1.35355L16.9795 0.646447Z" fill="currentColor"/>
</svg>
