<svg width="27" height="24" viewBox="0 0 27 24" xmlns="http://www.w3.org/2000/svg">
<path d="M12.8595 4.22813L12.8595 4.22814C11.6496 5.89928 10.4144 7.57311 10.119 7.93979L10.119 7.9398C9.8167 8.31496 9.06329 9.12654 8.44271 9.74943C8.13647 10.0568 7.85095 10.3506 7.63811 10.5758C7.5314 10.6886 7.44495 10.7821 7.38397 10.8505C7.37889 10.8562 7.37406 10.8617 7.36948 10.8668C7.36661 10.9075 7.36367 10.96 7.36079 11.0259C7.35196 11.2276 7.34468 11.5299 7.33895 11.9495C7.32751 12.7874 7.3225 14.0755 7.3225 15.9228V20.883L7.40541 20.9938C7.48253 21.0969 7.84095 21.4657 8.26598 21.8773C8.68409 22.2822 9.0941 22.6587 9.2501 22.7767C9.51073 22.9737 10.0469 23.2459 10.4694 23.385C10.5538 23.4128 10.6581 23.4423 11.3162 23.4605C11.9651 23.4784 13.0988 23.4856 15.2021 23.495C16.7835 23.502 17.9472 23.5017 18.7515 23.4936C19.5808 23.4852 19.9809 23.468 20.0808 23.4514L20.0809 23.4514C20.622 23.3615 21.1417 23.0934 21.5745 22.6665C21.6793 22.5633 21.7894 22.4422 21.8803 22.3325C21.9256 22.2778 21.9639 22.2286 21.9932 22.1882C22.0078 22.1681 22.019 22.1516 22.0272 22.1389C22.0324 22.1309 22.0354 22.1258 22.0369 22.1232C22.0376 22.122 22.038 22.1214 22.038 22.1213C22.0383 22.1206 22.043 22.1113 22.0543 22.0875C22.065 22.0649 22.0792 22.0345 22.0971 21.9961C22.1327 21.9194 22.1813 21.8139 22.2416 21.6825C22.3621 21.4197 22.5282 21.0555 22.7278 20.6162C23.1271 19.7376 23.6602 18.5599 24.2306 17.2953L24.6864 17.5009L24.2306 17.2953C24.8699 15.8781 25.3996 14.684 25.7789 13.8077C25.9687 13.3692 26.1199 13.0122 26.2281 12.7474C26.2823 12.6148 26.3248 12.5076 26.3556 12.4259C26.371 12.3851 26.3828 12.3524 26.3914 12.3273C26.3956 12.3149 26.3988 12.3052 26.401 12.298C26.4032 12.2911 26.404 12.288 26.404 12.288L26.404 12.288C26.4938 11.9424 26.5116 11.7717 26.4937 10.8274C26.483 10.2607 26.4769 10.0237 26.4545 9.87012C26.4383 9.75889 26.4185 9.71057 26.3193 9.50406C26.1296 9.10915 25.7448 8.71016 25.4395 8.55627L25.6627 8.1135L25.4395 8.55626C25.2913 8.48156 25.2116 8.44442 25.1088 8.41564C25.0026 8.3859 24.8514 8.35998 24.572 8.34142C24.0031 8.30363 23.0153 8.30182 21.0227 8.30144C19.9965 8.30122 19.063 8.29778 18.3855 8.29238C18.0471 8.28969 17.7712 8.2865 17.5792 8.28295C17.4837 8.28118 17.4063 8.27928 17.3514 8.2772C17.325 8.2762 17.2982 8.27495 17.2756 8.27323C17.2663 8.27252 17.2462 8.27092 17.2238 8.2675C17.216 8.26631 17.186 8.26181 17.1498 8.25077C17.1354 8.24637 17.0881 8.23176 17.0345 8.19914L17.0334 8.19849C17.0097 8.18416 16.7942 8.05405 16.7942 7.77172C16.7942 7.72381 16.8014 7.6865 16.8032 7.67739L16.8033 7.67686C16.8061 7.66217 16.809 7.65054 16.8106 7.6443C16.8121 7.63862 16.8136 7.63343 16.8149 7.62901C16.8165 7.62352 16.8178 7.6192 16.8187 7.61657C16.822 7.60612 16.8253 7.59665 16.8274 7.59078C16.8319 7.57794 16.8376 7.56278 16.8435 7.54721C16.8556 7.51526 16.8727 7.47097 16.8939 7.41678C16.9365 7.30787 16.9977 7.15324 17.0729 6.96474C17.2233 6.58744 17.4305 6.07155 17.6583 5.50797C18.1409 4.31426 18.3818 3.68899 18.4887 3.26627C18.5831 2.89322 18.5675 2.70687 18.4984 2.37276C18.3528 1.66849 18.0073 1.13803 17.5557 0.831655L17.5557 0.831629C17.1495 0.556046 16.578 0.440594 16.1488 0.529447C15.8615 0.588978 15.4507 0.808871 15.2489 1.00849M12.8595 4.22813L15.2489 1.00849M12.8595 4.22813C13.4651 3.39153 14.0418 2.60526 14.4828 2.01272C14.7034 1.71626 14.8892 1.46951 15.0273 1.28964C15.0964 1.19952 15.1523 1.12786 15.1941 1.07581C15.2227 1.04007 15.2391 1.02066 15.2461 1.01227C15.2508 1.00674 15.2514 1.00599 15.2489 1.00849M12.8595 4.22813L15.2489 1.00849M1.5558 22.3845L1.55582 22.3845C1.64594 22.4256 1.70366 22.4436 1.78938 22.4558C1.89245 22.4704 2.04014 22.4768 2.31648 22.4768C2.63233 22.4768 2.7603 22.4716 2.84876 22.4559C2.91441 22.4443 2.96664 22.4261 3.12618 22.3464L3.34956 22.7937L3.12619 22.3464C3.47485 22.1723 3.83274 21.806 4.01128 21.4303L4.13295 21.1743M1.5558 22.3845L4.13295 21.1743M1.5558 22.3845C1.41615 22.3209 1.22721 22.1866 1.04106 22.0059C0.855946 21.8263 0.708338 21.6345 0.630093 21.4821C0.630089 21.4821 0.630084 21.4821 0.63008 21.4821L0.5 21.2288V16.3118V11.3992L0.61775 11.1788C0.888841 10.6714 1.28178 10.3421 1.78969 10.1786M1.5558 22.3845L1.78969 10.1786M4.13295 21.1743V21.2871H4.63295L4.18137 21.0725L4.13295 21.1743ZM1.78969 10.1786C1.8702 10.1528 2.10206 10.1243 2.39311 10.1351L1.78969 10.1786ZM7.30931 10.9375C7.30743 10.9401 7.30635 10.9415 7.30633 10.9414C7.30631 10.9414 7.30723 10.9401 7.30931 10.9375ZM3.97934 11.1441L4.13295 11.4518L2.39314 10.1351C3.11702 10.162 3.66525 10.515 3.97934 11.1441Z" stroke="currentColor" fill="none" />
</svg>
