<svg width="18" height="18" viewBox="0 0 18 18" xmlns="http://www.w3.org/2000/svg">
<path d="M8.99922 0C5.51622 0 2.69922 2.817 2.69922 6.3C2.69922 11.025 8.99922 18 8.99922 18C8.99922 18 15.2992 11.025 15.2992 6.3C15.2992 2.817 12.4822 0 8.99922 0ZM8.99922 8.55C8.40248 8.55 7.83019 8.31295 7.40823 7.89099C6.98627 7.46903 6.74922 6.89674 6.74922 6.3C6.74922 5.70326 6.98627 5.13097 7.40823 4.70901C7.83019 4.28705 8.40248 4.05 8.99922 4.05C9.59596 4.05 10.1683 4.28705 10.5902 4.70901C11.0122 5.13097 11.2492 5.70326 11.2492 6.3C11.2492 6.89674 11.0122 7.46903 10.5902 7.89099C10.1683 8.31295 9.59596 8.55 8.99922 8.55Z" fill="currentColor"/>
</svg>
