<svg width="24" height="24" viewBox="0 0 24 24" xmlns="http://www.w3.org/2000/svg">
<path fill-rule="evenodd" clip-rule="evenodd" d="M11.2704 0.152361C11.0699 0.242754 10.7951 0.423973 10.6594 0.555059C10.5238 0.686145 9.77884 2.11181 9.00392 3.72326C8.2291 5.3347 7.57646 6.67399 7.55361 6.69938C7.53076 6.72477 6.13929 6.95168 4.46155 7.20376C1.2514 7.68589 1.16388 7.70521 0.704434 8.03639C0.0658673 8.49671 -0.204331 9.76525 0.171652 10.538C0.264605 10.729 1.34436 11.9027 2.5711 13.1462C3.8908 14.4841 4.80154 15.4894 4.80154 15.6083C4.80154 15.7189 4.58591 17.0942 4.32238 18.6645C4.05876 20.2349 3.84208 21.7471 3.84083 22.0252C3.8353 23.2557 4.98463 24.2233 6.13314 23.955C6.34929 23.9044 7.73503 23.2016 9.21246 22.393C10.6899 21.5844 11.9468 20.9228 12.0055 20.9228C12.0643 20.9228 13.3074 21.5787 14.7681 22.3803C16.2288 23.1819 17.5262 23.8716 17.6513 23.913C17.9908 24.025 18.7482 23.9864 19.0154 23.8434C19.3589 23.6597 19.8212 23.1905 19.9899 22.8544C20.2245 22.3874 20.1676 21.6418 19.6677 18.6322C19.4095 17.0777 19.1982 15.7162 19.1982 15.6066C19.1982 15.4898 20.1229 14.47 21.4287 13.1462C22.6554 11.9027 23.7352 10.729 23.8281 10.538C24.2038 9.76601 23.9357 8.50453 23.2953 8.03097C22.8644 7.71226 22.424 7.61449 19.5112 7.1902C18.0481 6.97707 16.7478 6.76905 16.6217 6.72792C16.4483 6.67139 16.0517 5.94043 14.9918 3.72326C14.2214 2.11181 13.4789 0.685819 13.3417 0.554408C12.7724 0.00857826 11.945 -0.152023 11.2704 0.152361ZM13.6691 4.85582C15.1499 7.87655 15.1917 7.94698 15.6512 8.19808C16.0269 8.40339 16.7355 8.5462 19.1982 8.91276C22.0767 9.34107 22.2779 9.38545 22.3073 9.59792C22.3313 9.77078 21.8108 10.3546 20.1327 12.0372C18.9194 13.2538 17.8372 14.4304 17.7279 14.6518C17.4457 15.2232 17.4727 15.6377 17.999 18.8068C18.5378 22.0512 18.5513 22.225 18.2655 22.225C18.1541 22.225 16.8513 21.5542 15.3705 20.7341C11.7567 18.7332 12.2517 18.7331 8.62898 20.7361C7.14789 21.5551 5.8452 22.225 5.73399 22.225C5.44856 22.225 5.46212 22.0503 6.00075 18.8068C6.52706 15.6377 6.55408 15.2232 6.27188 14.6518C6.16255 14.4304 5.0804 13.2538 3.86712 12.0372C2.19574 10.3613 1.66859 9.77046 1.69248 9.59944C1.7219 9.38892 1.93556 9.34161 4.85371 8.90028C7.47589 8.50366 8.05509 8.38375 8.42534 8.16032C8.84451 7.90737 8.94414 7.73407 10.3553 4.80276C11.4022 2.62823 11.8898 1.7204 11.9999 1.74091C12.0883 1.75729 12.8151 3.11373 13.6691 4.85582Z" fill="currentColor"/>
</svg>
