<svg width="24" height="24" viewBox="0 0 24 24" xmlns="http://www.w3.org/2000/svg">
<path d="M10.1592 4.14175L10.1592 4.14176C9.70502 5.10949 9.29076 5.99073 8.9892 6.63097C8.83844 6.95105 8.71575 7.2111 8.63029 7.39167C8.5876 7.48188 8.554 7.55268 8.53078 7.60133L8.50309 7.659L8.49344 7.67866L8.48663 7.69195C8.48537 7.69434 8.48207 7.70057 8.47769 7.70822C8.47566 7.71177 8.47112 7.71963 8.46493 7.7293C8.46182 7.73412 8.45409 7.74557 8.4494 7.7522C8.44204 7.76216 8.42095 7.78815 8.40678 7.80378L8.4043 7.80639C8.33319 7.88051 8.25508 7.91355 8.24783 7.91661C8.24758 7.91672 8.24741 7.91679 8.24734 7.91683C8.22523 7.9267 8.20716 7.93282 8.19921 7.93543C8.18201 7.94109 8.16814 7.94459 8.16335 7.94579C8.15168 7.94871 8.14187 7.95073 8.13799 7.95152C8.12845 7.95347 8.1186 7.95527 8.11093 7.95664C8.09443 7.9596 8.07237 7.96334 8.0464 7.96764C7.99382 7.97636 7.91784 7.9886 7.82173 8.00387C7.62916 8.03446 7.35205 8.07781 7.01126 8.13066C6.3295 8.2364 5.3911 8.3805 4.36053 8.53745C3.11008 8.72788 2.1628 8.87711 1.51541 8.98559C1.19123 9.03991 0.945487 9.08348 0.775678 9.11653C0.699745 9.13131 0.642476 9.14332 0.60181 9.15268C0.587208 9.17 0.569901 9.19439 0.552974 9.22454C0.533681 9.25891 0.51892 9.29359 0.509669 9.32346C0.505678 9.33635 0.503335 9.34631 0.501959 9.35333C0.503205 9.35788 0.504788 9.36324 0.506757 9.36932C0.511242 9.38317 0.51665 9.39739 0.52233 9.41032C0.523354 9.41265 0.524339 9.41483 0.525277 9.41685C0.532846 9.42567 0.542786 9.43706 0.555416 9.4513C0.594547 9.49541 0.651199 9.55751 0.724689 9.63675C0.871184 9.7947 1.07773 10.0134 1.32982 10.2775C1.83362 10.8054 2.51495 11.5103 3.25195 12.2644C3.99073 13.0204 4.66291 13.7143 5.15089 14.2236C5.39467 14.478 5.59358 14.6874 5.73215 14.8359C5.80105 14.9097 5.85718 14.9707 5.89704 15.0154C5.91635 15.037 5.93562 15.0591 5.9516 15.0786C5.95879 15.0874 5.97118 15.1028 5.98389 15.1208C5.98962 15.1289 6.00225 15.1472 6.01553 15.1713C6.02209 15.1831 6.03364 15.2051 6.04477 15.2338C6.05273 15.2544 6.07743 15.32 6.07865 15.4083L10.1592 4.14175ZM10.1592 4.14175C10.6131 3.17477 11.0351 2.28157 11.3493 1.6216C11.5065 1.29149 11.6364 1.02045 11.7297 0.827938C11.7764 0.731499 11.8134 0.655977 11.8398 0.603032C11.8498 0.582815 11.8571 0.568546 11.862 0.558989C11.866 0.555032 11.871 0.550425 11.8767 0.545432C11.8864 0.536972 11.896 0.529502 11.9041 0.523807C11.9092 0.520155 11.9123 0.51825 11.9132 0.517708C11.9458 0.501342 11.9955 0.493559 12.0494 0.506339C12.0945 0.51703 12.1208 0.536541 12.1333 0.54996C12.1377 0.55861 12.1462 0.575085 12.1598 0.602431C12.1863 0.655413 12.2233 0.730973 12.27 0.827456C12.3634 1.02005 12.4933 1.29118 12.6506 1.62136C12.9649 2.28148 13.3869 3.17478 13.8408 4.14175L13.8408 4.14176C14.295 5.10949 14.7092 5.99073 15.0108 6.63097C15.1616 6.95105 15.2842 7.2111 15.3697 7.39167C15.4124 7.48188 15.446 7.55268 15.4692 7.60133L15.4969 7.659L15.5066 7.67866L15.5134 7.69195C15.5146 7.69434 15.5179 7.70057 15.5223 7.70822C15.5233 7.71003 15.525 7.71295 15.5272 7.71666C15.5294 7.72024 15.532 7.72455 15.5351 7.7293C15.5382 7.73412 15.5459 7.74557 15.5506 7.7522C15.558 7.76216 15.579 7.78815 15.5932 7.80378L15.5932 7.80379M10.1592 4.14175L15.5932 7.80379M4.85344 23.3732L4.85345 23.3732C4.87375 23.4246 4.88656 23.4415 4.88995 23.4457L4.89011 23.4459C4.89202 23.4483 4.89862 23.4566 4.92553 23.473C4.93806 23.4806 4.94862 23.4869 4.95741 23.4922C4.99479 23.4815 5.06957 23.4565 5.20158 23.3973C5.65379 23.1944 6.4992 22.7276 8.26405 21.7532L8.39497 21.6809L11.7583 19.8238L12.0002 19.6902L12.242 19.824L15.6054 21.6846C17.2272 22.5818 18.0615 23.0419 18.5227 23.2791C18.7562 23.3991 18.8718 23.4502 18.9356 23.4727C18.9686 23.4844 18.973 23.4842 18.981 23.4839C18.9826 23.4838 18.9843 23.4837 18.9863 23.4837H18.9864C19.035 23.4839 19.0644 23.4789 19.0804 23.4748C19.0881 23.4727 19.0926 23.4709 19.0948 23.4699C19.0969 23.469 19.0977 23.4685 19.0978 23.4684C19.0979 23.4683 19.0987 23.4677 19.1003 23.4661C19.1019 23.4645 19.1051 23.4609 19.1097 23.4544C19.119 23.441 19.1338 23.4152 19.1503 23.3697L19.1504 23.3696L19.1863 23.2709L18.5672 19.4753C18.3911 18.3959 18.2311 17.4082 18.1152 16.6864C18.0572 16.3256 18.0101 16.0308 17.9776 15.8241C17.9614 15.7209 17.9486 15.639 17.9399 15.5815C17.9355 15.553 17.932 15.5292 17.9295 15.5114L17.926 15.4852L17.924 15.4678C17.9236 15.4643 17.9231 15.4585 17.9226 15.4514L17.9226 15.4512L4.85344 23.3732ZM4.85344 23.3732L4.81348 23.272L5.43209 19.4795C5.60836 18.3989 5.76856 17.4102 5.88466 16.6876M4.85344 23.3732L5.88466 16.6876M15.5932 7.80379L15.5957 7.80642M15.5932 7.80379L15.5957 7.80642M15.5957 7.80642C15.6693 7.8831 15.7504 7.9158 15.7527 7.91683C15.7748 7.92671 15.7928 7.93282 15.8008 7.93543C15.818 7.94109 15.8319 7.94459 15.8367 7.94579C15.8483 7.94871 15.8581 7.95073 15.862 7.95152C15.8715 7.95347 15.8814 7.95527 15.8891 7.95664C15.9056 7.9596 15.9276 7.96334 15.9536 7.96764C16.0062 7.97636 16.0822 7.9886 16.1783 8.00387C16.3708 8.03446 16.648 8.07781 16.9887 8.13066C17.6705 8.2364 18.6089 8.3805 19.6395 8.53745C20.8899 8.72788 21.8372 8.87711 22.4846 8.98559C22.8088 9.03991 23.0545 9.08348 23.2243 9.11653C23.3003 9.13131 23.3575 9.14332 23.3982 9.15268C23.4128 9.17 23.4301 9.19439 23.447 9.22454C23.4663 9.25891 23.4811 9.29359 23.4903 9.32346C23.4943 9.33635 23.4967 9.34631 23.498 9.35333C23.4968 9.35788 23.4952 9.36324 23.4932 9.36932C23.4888 9.38317 23.4834 9.39739 23.4777 9.41032C23.4766 9.41265 23.4757 9.41483 23.4747 9.41685C23.4672 9.42567 23.4572 9.43706 23.4446 9.4513C23.4055 9.49541 23.3488 9.55751 23.2753 9.63674C23.1288 9.7947 22.9223 10.0134 22.6702 10.2775C22.1664 10.8054 21.4851 11.5103 20.7481 12.2644C20.0093 13.0204 19.3371 13.7143 18.8491 14.2236C18.6053 14.478 18.4064 14.6874 18.2678 14.8359C18.1989 14.9097 18.1428 14.9707 18.103 15.0154C18.0836 15.0371 18.0644 15.0591 18.0484 15.0786C18.0412 15.0874 18.0288 15.1028 18.0161 15.1208C18.0104 15.129 17.9977 15.1472 17.9845 15.1713C17.9779 15.1831 17.9664 15.2051 17.9552 15.2339C17.9473 15.2544 17.9226 15.32 17.9213 15.4083L15.5957 7.80642ZM5.88466 16.6876C5.94269 16.3264 5.98977 16.0313 6.02235 15.8245M5.88466 16.6876L6.02235 15.8245M6.02235 15.8245C6.03861 15.7212 6.05138 15.6391 6.06011 15.5816M6.02235 15.8245L6.06011 15.5816M6.06011 15.5816C6.06445 15.553 6.06799 15.5292 6.07051 15.5114M6.06011 15.5816L6.07051 15.5114M6.07051 15.5114L6.07405 15.4852M6.07051 15.5114L6.07405 15.4852M6.07405 15.4852L6.07602 15.4678M6.07405 15.4852L6.07602 15.4678M6.07602 15.4678C6.07637 15.4643 6.07693 15.4585 6.07743 15.4514M6.07602 15.4678L6.07743 15.4514M6.07743 15.4514C6.07772 15.4471 6.07893 15.4304 6.07866 15.4091L6.07743 15.4514ZM0.508131 9.39621C0.50821 9.39627 0.509242 9.39754 0.510989 9.39984C0.508925 9.3973 0.508052 9.39615 0.508131 9.39621ZM23.4919 9.39621C23.492 9.3961 23.4911 9.39725 23.489 9.39985C23.4907 9.39758 23.4918 9.39631 23.4919 9.39621Z" stroke="currentColor" fill="none" />
</svg>
