<svg width="24" height="24" viewBox="0 0 24 24" xmlns="http://www.w3.org/2000/svg">
<path fill-rule="evenodd" clip-rule="evenodd" d="M11.6821 0.0743269C11.5975 0.118128 11.4899 0.211735 11.4431 0.282358C11.3962 0.353031 10.6148 1.99415 9.7066 3.92933C8.79833 5.8645 8.04995 7.4534 8.04348 7.46025C8.03697 7.46704 6.34578 7.72935 4.28526 8.04315C1.78302 8.42422 0.484369 8.64184 0.374773 8.69839C0.187364 8.7951 -0.000374446 9.12956 5.60875e-07 9.36604C0.000141189 9.44828 0.0475796 9.59479 0.105471 9.6917C0.163363 9.78855 1.41832 11.1035 2.89435 12.6139C4.37034 14.1242 5.57833 15.3848 5.5787 15.4152C5.57912 15.4457 5.29107 17.2383 4.93861 19.399L4.29782 23.3275L4.38838 23.5568C4.45382 23.7226 4.53051 23.8177 4.66514 23.8998C5.02543 24.1196 4.95717 24.1502 8.63665 22.1186L12 20.2615L15.3633 22.1221C18.5984 23.9118 18.7365 23.9829 18.9845 23.9837C19.3138 23.985 19.5078 23.8497 19.6202 23.5406L19.7008 23.3192L19.0607 19.3948C18.7086 17.2365 18.4209 15.4457 18.4213 15.4152C18.4217 15.3848 19.6296 14.1242 21.1056 12.6139C22.5817 11.1035 23.8366 9.78855 23.8945 9.6917C23.9524 9.59479 23.9999 9.44828 24 9.36604C24.0004 9.12956 23.8126 8.7951 23.6252 8.69839C23.5156 8.64184 22.217 8.42422 19.7147 8.04315C17.6542 7.72935 15.963 7.46704 15.9565 7.46025C15.95 7.4534 15.2017 5.8645 14.2934 3.92933C13.3852 1.99415 12.6035 0.352637 12.5564 0.281521C12.3791 0.0143339 11.9806 -0.0801093 11.6821 0.0743269Z" fill="currentColor"/>
</svg>
