<svg width="17" height="16" viewBox="0 0 17 16" xmlns="http://www.w3.org/2000/svg">
<path d="M16.6866 8.35355C16.8818 8.15829 16.8818 7.84171 16.6866 7.64645L13.5046 4.46447C13.3093 4.2692 12.9927 4.2692 12.7975 4.46447C12.6022 4.65973 12.6022 4.97631 12.7975 5.17157L15.6259 8L12.7975 10.8284C12.6022 11.0237 12.6022 11.3403 12.7975 11.5355C12.9927 11.7308 13.3093 11.7308 13.5046 11.5355L16.6866 8.35355ZM-0.0205456 7.64645C-0.215808 7.84171 -0.215808 8.15829 -0.0205456 8.35355L3.16143 11.5355C3.3567 11.7308 3.67328 11.7308 3.86854 11.5355C4.0638 11.3403 4.0638 11.0237 3.86854 10.8284L1.04011 8L3.86854 5.17157C4.0638 4.97631 4.0638 4.65973 3.86854 4.46447C3.67328 4.2692 3.3567 4.2692 3.16143 4.46447L-0.0205456 7.64645ZM16.333 7.5L0.333008 7.5L0.333008 8.5L16.333 8.5V7.5Z" fill="currentColor"/>
</svg>
