<svg width="70" height="70" viewBox="0 0 70 70" xmlns="http://www.w3.org/2000/svg">
<path fill-rule="evenodd" clip-rule="evenodd" d="M27.9597 0.15688C20.9494 0.882127 14.2234 4.1206 9.15765 9.20997C4.04203 14.3493 0.846999 21.1671 0.143046 28.4459C-1.24627 42.8125 7.60936 56.4988 21.2719 61.1006C30.3614 64.1619 40.1842 62.881 48.1385 57.5968C48.8916 57.0965 49.0129 57.0055 49.33 56.76L56.1044 63.5598C58.6277 66.1032 60.032 67.7013 61.8337 69.0089C66.7343 72.2051 72.6438 67.1202 68.7225 61.5995C68.0315 60.5825 65.9436 58.258 63.4212 55.7156L56.6809 48.8873C62.6083 40.643 63.825 31.0909 60.6241 21.4351C57.7435 12.7463 51.1354 5.66785 42.7335 2.27175C38.0748 0.388604 32.8918 -0.35335 27.9597 0.15688ZM32.3965 17.0696C33.105 17.3674 33.8414 18.0874 34.1719 18.8055C34.4133 19.33 34.4397 19.8083 34.4426 23.7088L34.4458 28.0309L38.7338 28.0341C42.6035 28.037 43.078 28.0636 43.5983 28.307C44.7894 28.864 45.5441 30.053 45.5441 31.3724C45.5441 32.6919 44.7894 33.8809 43.5983 34.4379C43.078 34.6812 42.6035 34.7078 38.7338 34.7107L34.4458 34.7139L34.4426 39.036C34.4397 42.9366 34.4133 43.4148 34.1719 43.9393C33.2069 46.0357 30.4976 46.5676 28.843 44.9852C27.8538 44.0392 27.8222 43.8563 27.8187 39.036L27.8156 34.7139L23.5276 34.7107C19.6579 34.7078 19.1834 34.6812 18.663 34.4379C16.5832 33.4652 16.0555 30.7343 17.6254 29.0665C18.5639 28.0694 18.7453 28.0376 23.5276 28.0341L27.8156 28.0309V23.7405C27.8156 19.0078 27.8458 18.8125 28.7238 17.8798C29.6395 16.907 31.1941 16.564 32.3965 17.0696Z" fill="currentColor"/>
</svg>
