<svg width="113" height="139" viewBox="0 0 113 139" fill="none" xmlns="http://www.w3.org/2000/svg">
<path d="M113 56.5C113 115.5 56.5 138.5 56.5 138.5C56.5 138.5 0 115.5 0 56.5C0 25.2959 25.2959 0 56.5 0C87.7041 0 113 25.2959 113 56.5Z" fill="#2B9756"/>
<g clip-path="url(#clip0_1172_43901)">
<path d="M77.076 27V64.5095H74.2632V35.2013H26V27H77.076Z" fill="#D2C6B0"/>
<path d="M26 37.2903H63.6187V40.095H34.2252V88.2181H26V37.2903Z" fill="#D2C6B0"/>
<path d="M35.9238 88.218V50.7085H38.7367V80.0167H87.0013V88.218H35.9238Z" fill="#D2C6B0"/>
<path d="M87.001 77.9278H49.3809V75.1231H78.7744V27H87.001V77.9278Z" fill="#D2C6B0"/>
<path d="M66.6403 42.5253V61.0099H65.2532V46.5665H41.4688V42.5253H66.6403Z" fill="#D2C6B0"/>
<path d="M41.4688 47.5957H60.0072V48.9773H45.5231V72.6942H41.4688V47.5957Z" fill="#D2C6B0"/>
<path d="M46.3594 72.6942V54.2081H47.745V68.6516H71.5295V72.6942H46.3594Z" fill="#D2C6B0"/>
<path d="M71.5306 67.6223H52.9922V66.2407H67.4776V42.5253H71.5306V67.6223Z" fill="#D2C6B0"/>
</g>
<defs>
<clipPath id="clip0_1172_43901">
<rect width="61" height="76" fill="white" transform="translate(26 27)"/>
</clipPath>
</defs>
</svg>
