<svg width="80" height="100" viewBox="0 0 80 100" fill="none" xmlns="http://www.w3.org/2000/svg">
<g clip-path="url(#clip0_1128_24633)">
<path d="M66.985 0V49.3546H63.296V10.7912H0V0H66.985Z" fill="#D2C6B0"/>
<path d="M0 13.54H49.336V17.2304H10.7871V80.5503H0V13.54Z" fill="#D2C6B0"/>
<path d="M13.0146 80.5499V31.1953H16.7036V69.7588H80.0014V80.5499H13.0146Z" fill="#D2C6B0"/>
<path d="M80.0019 67.0102H30.6641V63.3199H69.213V0H80.0019V67.0102Z" fill="#D2C6B0"/>
<path d="M53.2989 20.4277V44.7497H51.4799V25.7451H20.2871V20.4277H53.2989Z" fill="#D2C6B0"/>
<path d="M20.2871 27.0996H44.5999V28.9175H25.6043V60.1239H20.2871V27.0996Z" fill="#D2C6B0"/>
<path d="M26.7021 60.1245V35.8008H28.5194V54.8053H59.7121V60.1245H26.7021Z" fill="#D2C6B0"/>
<path d="M59.7121 53.4502H35.3994V51.6323H54.3967V20.4277H59.7121V53.4502Z" fill="#D2C6B0"/>
<path d="M10.9034 92.8955C12.2772 93.4724 12.9641 94.5383 12.9641 96.0933C12.9641 97.3307 12.5637 98.3002 11.7629 99.0019C11.356 99.3559 10.8765 99.6165 10.3582 99.7655C9.70618 99.9369 9.03328 100.016 8.35927 100H0V99.6818C0.171714 99.6418 0.327827 99.552 0.448856 99.4237C0.541671 99.2863 0.585817 99.1219 0.574245 98.9565V87.4872C0.585817 87.3218 0.541671 87.1573 0.448856 87.02C0.327827 86.8917 0.171714 86.8019 0 86.7619L0 86.4437H8.28294C8.92783 86.4278 9.57211 86.4944 10.2001 86.6419C10.6702 86.7672 11.1053 86.9985 11.4722 87.3181C12.1991 87.9471 12.5625 88.8561 12.5625 90.045C12.5589 91.3648 12.0058 92.315 10.9034 92.8955ZM3.24921 91.832H7.93222C8.64275 91.832 9.13886 91.7175 9.42053 91.4848C9.73673 91.2218 9.89483 90.8116 9.89483 90.2541C9.89483 89.6966 9.74642 89.2924 9.4496 89.0415C9.14916 88.7991 8.64397 88.6779 7.93403 88.6779H3.24558L3.24921 91.832ZM3.24921 97.7621H7.79229C8.64033 97.7621 9.24608 97.633 9.60952 97.3749C10.0323 97.0768 10.2443 96.592 10.2456 95.9206C10.2456 95.2534 10.0329 94.7662 9.60952 94.4662C9.24608 94.2056 8.64033 94.076 7.79229 94.0772H3.24921V97.7621Z" fill="white"/>
<path d="M25.6898 86.4434V89.3139H25.3809C25.3441 89.1296 25.2581 88.9587 25.1319 88.8194C25.0069 88.7173 24.8477 88.6666 24.6867 88.6776H16.451V91.8953H21.7955C21.9551 91.9066 22.1131 91.8565 22.2371 91.7553C22.3652 91.6165 22.4521 91.4446 22.4879 91.259H22.7968V94.6858H22.4879C22.4496 94.5022 22.3631 94.3321 22.2371 94.1932C22.1136 94.0907 21.9556 94.0393 21.7955 94.0495H16.451V97.7636H24.9175C25.0779 97.7748 25.2368 97.7255 25.3627 97.6254C25.4899 97.4852 25.5765 97.313 25.6135 97.1273H25.9224V99.9996H12.9619V99.6797C13.1447 99.6421 13.313 99.5532 13.4471 99.4233C13.545 99.288 13.5926 99.1228 13.5816 98.9561V87.4868C13.5932 87.3201 13.5456 87.1547 13.4471 87.0196C13.3143 86.8897 13.1473 86.8002 12.9655 86.7615V86.4434H24.6903" fill="white"/>
<path d="M39.2691 86.4434V89.3266H38.9638C38.9294 89.1404 38.8431 88.9677 38.7148 88.8285C38.5868 88.7285 38.4261 88.6799 38.2642 88.6921H34.2154V98.9579C34.2029 99.1242 34.2506 99.2894 34.3498 99.4233C34.4805 99.5543 34.6466 99.6441 34.8278 99.6815V99.9996H30.7499V99.6815C30.9312 99.6431 31.0977 99.5535 31.2297 99.4233C31.3266 99.2884 31.3736 99.1238 31.3623 98.9579V88.6921H27.3044C27.1453 88.6804 26.9877 88.7291 26.8628 88.8285C26.7352 88.9679 26.6495 89.1406 26.6157 89.3266H26.3086V86.4434H39.2691Z" fill="white"/>
<path d="M44.7967 93.6732L43.0177 95.3221V98.9579C43.0071 99.1249 43.0511 99.2908 43.1431 99.4306C43.2562 99.5575 43.4062 99.6458 43.5719 99.6833V100.001H39.8848V99.6833C40.0518 99.6431 40.2026 99.5531 40.3173 99.4251C40.4079 99.287 40.4507 99.1228 40.439 98.9579V87.4759C40.4503 87.3145 40.4075 87.1539 40.3173 87.0196C40.2026 86.8917 40.0518 86.8017 39.8848 86.7615V86.4434H43.5719V86.7615C43.4041 86.7964 43.2522 86.8851 43.1394 87.0142C43.0502 87.151 43.0075 87.3129 43.0177 87.4759V92.2207L47.8806 87.665C48.1059 87.4541 48.2186 87.2851 48.2186 87.1578C48.2186 86.9669 48.0514 86.8342 47.717 86.7615V86.4434H52.5436V86.7615C52.3915 86.7891 52.2452 86.8425 52.1111 86.9197C52.0239 86.9803 51.7731 87.2057 51.3588 87.5959L50.7009 88.2304L46.6849 91.9335L51.2279 98.2217C51.4977 98.623 51.8017 99.0001 52.1365 99.3488C52.3357 99.5238 52.58 99.6391 52.8416 99.6815V99.9996H48.2259V99.6815C48.5312 99.6088 48.6838 99.4833 48.6838 99.3033C48.6838 99.2106 48.5457 98.967 48.2695 98.5762L44.7967 93.6732Z" fill="white"/>
<path d="M62.1493 96.5437H57.3172L56.6031 98.4507C56.519 98.6495 56.4686 98.8608 56.4541 99.0761C56.4541 99.367 56.6279 99.5688 56.9756 99.6815V99.9996H53.4629V99.6815C53.6469 99.6426 53.8134 99.545 53.9372 99.4033C54.0988 99.1649 54.2243 98.904 54.3097 98.6289L58.2168 88.2122C58.3215 87.9595 58.383 87.6909 58.3985 87.4178C58.4024 87.2747 58.3609 87.1342 58.2799 87.0162C58.199 86.8983 58.0827 86.8091 57.9478 86.7615V86.4434H61.7131V86.7615C61.582 86.7933 61.4653 86.8683 61.3819 86.9745C61.2985 87.0807 61.2532 87.2118 61.2534 87.3469C61.2613 87.5731 61.3119 87.7957 61.4024 88.0031L65.4475 98.4507C65.5559 98.7728 65.7075 99.0785 65.8982 99.3597C66.03 99.524 66.2141 99.6382 66.4198 99.6833V100.001H62.5127V99.6833C62.6617 99.6676 62.7987 99.5945 62.8948 99.4795C62.9908 99.3644 63.0382 99.2165 63.027 99.067C63.01 98.855 62.9578 98.6474 62.8725 98.4526L62.1493 96.5437ZM61.4823 94.6858L59.7596 89.8574L58.0096 94.6858H61.4823Z" fill="white"/>
<path d="M73.3212 99.9996L69.5577 90.6337V98.9561C69.5478 99.1187 69.5844 99.2808 69.6631 99.4233C69.7571 99.5472 69.8883 99.6377 70.0375 99.6815V99.9996H67.0391V99.6815C67.188 99.6371 67.319 99.5467 67.4134 99.4233C67.4914 99.2805 67.5274 99.1185 67.517 98.9561V87.4759C67.5267 87.3171 67.4907 87.1587 67.4134 87.0196C67.319 86.8962 67.188 86.8059 67.0391 86.7615V86.4434H70.9716V86.7615C70.8592 86.798 70.763 86.8723 70.699 86.9717C70.6351 87.071 70.6075 87.1895 70.6208 87.3069C70.6261 87.4649 70.6619 87.6205 70.7262 87.765L73.5084 94.7713L76.3233 87.8832C76.4218 87.6735 76.4833 87.4484 76.505 87.2178C76.5126 87.163 76.5089 87.1073 76.4939 87.054C76.479 87.0007 76.4533 86.9512 76.4183 86.9083C76.3833 86.8655 76.3399 86.8303 76.2907 86.8051C76.2415 86.7798 76.1877 86.765 76.1325 86.7615V86.4434H79.9887V86.7615C79.8402 86.8056 79.7096 86.8961 79.6161 87.0196C79.5373 87.1582 79.5007 87.3168 79.5107 87.4759V98.9561C79.4999 99.1188 79.5365 99.2811 79.6161 99.4233C79.7096 99.5469 79.8402 99.6373 79.9887 99.6815V99.9996H76.8158V99.6815C76.9611 99.6389 77.0887 99.5502 77.1792 99.4288C77.2596 99.2848 77.2968 99.1207 77.2864 98.9561V90.6337L73.3212 99.9996Z" fill="white"/>
</g>
<defs>
<clipPath id="clip0_1128_24633">
<rect width="80" height="100" fill="white"/>
</clipPath>
</defs>
</svg>
