<svg width="50" height="50" viewBox="0 0 50 50" fill="none" xmlns="http://www.w3.org/2000/svg">
<g clip-path="url(#clip0_756_32451)">
<path d="M41.8656 0V30.8466H39.56V6.74447H0V0H41.8656Z" fill="#7E7E7E"/>
<path d="M0 8.46245H30.835V10.7689H6.74193V50.3438H0V8.46245Z" fill="#7E7E7E"/>
<path d="M8.13477 50.3438V19.4971H10.4404V43.5993H50.0015V50.3438H8.13477Z" fill="#7E7E7E"/>
<path d="M50.0012 41.8814H19.165V39.5749H43.2581V0H50.0012V41.8814Z" fill="#7E7E7E"/>
<path d="M33.3121 12.7675V27.9687H32.1752V16.0909H12.6797V12.7675H33.3121Z" fill="#7E7E7E"/>
<path d="M12.6797 16.9373H27.8752V18.0735H16.0029V37.5775H12.6797V16.9373Z" fill="#7E7E7E"/>
<path d="M16.6895 37.5775V22.3751H17.8252V34.253H37.3207V37.5775H16.6895Z" fill="#7E7E7E"/>
<path d="M37.3204 33.4065H22.125V32.2703H33.9983V12.7675H37.3204V33.4065Z" fill="#7E7E7E"/>
</g>
<defs>
<clipPath id="clip0_756_32451">
<rect width="50" height="50" fill="white"/>
</clipPath>
</defs>
</svg>
