<svg width="96" height="120" viewBox="0 0 96 120" fill="none" xmlns="http://www.w3.org/2000/svg">
<g clip-path="url(#clip0_1117_24507)">
<path d="M80.382 0V59.2256H75.9552V12.9494H0V0H80.382Z" fill="#7E7E7E"/>
<path d="M0 16.2479H59.2032V20.6764H12.9445V96.6602H0V16.2479Z" fill="#7E7E7E"/>
<path d="M15.6172 96.6601V37.4345H20.044V83.7107H96.0013V96.6601H15.6172Z" fill="#7E7E7E"/>
<path d="M96.0023 80.4123H36.7969V75.9839H83.0556V0H96.0023V80.4123Z" fill="#7E7E7E"/>
<path d="M63.9599 24.5135V53.6999H61.777V30.8944H24.3457V24.5135H63.9599Z" fill="#7E7E7E"/>
<path d="M24.3457 32.5196H53.521V34.7011H30.7264V72.1488H24.3457V32.5196Z" fill="#7E7E7E"/>
<path d="M32.043 72.1487V42.9602H34.2236V65.7656H71.655V72.1487H32.043Z" fill="#7E7E7E"/>
<path d="M71.6557 64.1405H42.4805V61.959H65.2773V24.5135H71.6557V64.1405Z" fill="#7E7E7E"/>
<path d="M13.0841 111.615C14.7327 112.296 15.557 113.553 15.557 115.388C15.557 116.848 15.0765 117.992 14.1155 118.82C13.6271 119.238 13.0518 119.545 12.4299 119.721C11.6474 119.923 10.8399 120.016 10.0311 119.998H0V119.622C0.206057 119.575 0.393392 119.469 0.538628 119.318C0.650006 119.156 0.70298 118.962 0.689094 118.766V105.234C0.70298 105.039 0.650006 104.845 0.538628 104.683C0.393392 104.531 0.206057 104.425 0 104.378L0 104.003H9.93953C10.7134 103.984 11.4865 104.062 12.2401 104.236C12.8042 104.384 13.3264 104.657 13.7666 105.034C14.6389 105.777 15.075 106.849 15.075 108.252C15.0707 109.809 14.407 110.93 13.0841 111.615ZM3.89905 110.36H9.51866C10.3713 110.36 10.9666 110.225 11.3046 109.951C11.6841 109.64 11.8738 109.156 11.8738 108.499C11.8738 107.841 11.6957 107.364 11.3395 107.068C10.979 106.782 10.3728 106.639 9.52084 106.639H3.89469L3.89905 110.36ZM3.89905 117.357H9.35075C10.3684 117.357 11.0953 117.205 11.5314 116.9C12.0388 116.549 12.2932 115.977 12.2947 115.184C12.2947 114.397 12.0395 113.822 11.5314 113.468C11.0953 113.161 10.3684 113.008 9.35075 113.009H3.89905V117.357Z" fill="#4E4438"/>
<path d="M29.7487 104V107.388H29.415C29.3753 107.17 29.2824 106.969 29.1461 106.804C29.011 106.684 28.8391 106.624 28.6652 106.637H19.7689V110.435H25.5421C25.7145 110.448 25.8851 110.389 26.0191 110.27C26.1575 110.106 26.2513 109.903 26.29 109.684H26.6237V113.728H26.29C26.2487 113.512 26.1552 113.311 26.0191 113.147C25.8857 113.026 25.715 112.965 25.5421 112.977H19.7689V117.361H28.9145C29.0878 117.374 29.2594 117.316 29.3954 117.198C29.5327 117.032 29.6264 116.829 29.6663 116.61H30V120H16V119.622C16.1975 119.578 16.3793 119.473 16.5241 119.32C16.6299 119.16 16.6813 118.965 16.6694 118.768V105.232C16.6819 105.035 16.6305 104.84 16.5241 104.68C16.3806 104.527 16.2002 104.421 16.0039 104.375V104H28.6691" fill="#4E4438"/>
<path d="M45.992 104V107.403H45.6257C45.5845 107.183 45.4809 106.979 45.3269 106.815C45.1733 106.697 44.9805 106.64 44.7861 106.654H39.9276V118.771C39.9126 118.967 39.9699 119.162 40.089 119.32C40.2457 119.474 40.4451 119.58 40.6625 119.625V120H35.769V119.625C35.9866 119.579 36.1864 119.473 36.3447 119.32C36.4611 119.161 36.5174 118.966 36.5039 118.771V106.654H31.6345C31.4435 106.64 31.2543 106.698 31.1046 106.815C30.9514 106.98 30.8486 107.183 30.808 107.403H30.4395V104H45.992Z" fill="#4E4438"/>
<path d="M52.1162 112.532L50.0566 114.478V118.769C50.0444 118.966 50.0953 119.161 50.2018 119.326C50.3328 119.476 50.5064 119.58 50.6983 119.625V120H46.4297V119.625C46.623 119.577 46.7976 119.471 46.9304 119.32C47.0353 119.157 47.0849 118.963 47.0713 118.769V105.219C47.0844 105.028 47.0348 104.839 46.9304 104.68C46.7976 104.529 46.623 104.423 46.4297 104.375V104H50.6983V104.375C50.504 104.417 50.3282 104.521 50.1976 104.674C50.0942 104.835 50.0448 105.026 50.0566 105.219V110.818L55.6864 105.442C55.9472 105.193 56.0777 104.993 56.0777 104.843C56.0777 104.618 55.8841 104.461 55.497 104.375V104H61.0847V104.375C60.9085 104.408 60.7392 104.471 60.584 104.562C60.483 104.634 60.1927 104.9 59.713 105.36L58.9514 106.109L54.3021 110.479L59.5615 117.9C59.8738 118.373 60.2257 118.818 60.6134 119.23C60.8439 119.436 61.1268 119.572 61.4297 119.622V119.998H56.0861V119.622C56.4395 119.537 56.6162 119.389 56.6162 119.176C56.6162 119.067 56.4563 118.779 56.1366 118.318L52.1162 112.532Z" fill="#4E4438"/>
<path d="M72.5956 115.92H66.6287L65.7468 118.17C65.643 118.405 65.5808 118.654 65.5628 118.908C65.5628 119.251 65.7775 119.489 66.2069 119.622V119.998H61.8691V119.622C62.0964 119.577 62.3019 119.461 62.4548 119.294C62.6544 119.013 62.8094 118.705 62.9149 118.38L67.7395 106.087C67.8689 105.789 67.9448 105.472 67.9639 105.15C67.9688 104.981 67.9175 104.815 67.8175 104.676C67.7175 104.537 67.574 104.432 67.4074 104.375V104H72.0571V104.375C71.8951 104.413 71.751 104.502 71.6481 104.627C71.5451 104.752 71.4892 104.907 71.4893 105.066C71.4992 105.333 71.5616 105.596 71.6734 105.841L76.6686 118.17C76.8024 118.55 76.9896 118.911 77.2251 119.243C77.3878 119.437 77.6151 119.571 77.8691 119.625V120H73.0445V119.625C73.2284 119.606 73.3977 119.52 73.5162 119.384C73.6348 119.248 73.6934 119.074 73.6795 118.897C73.6585 118.647 73.5941 118.402 73.4888 118.172L72.5956 115.92ZM71.7721 113.727L69.6447 108.029L67.4837 113.727H71.7721Z" fill="#4E4438"/>
<path d="M86.8924 120L81.7512 108.946V118.768C81.7377 118.96 81.7876 119.152 81.8952 119.32C82.0236 119.466 82.2028 119.573 82.4066 119.625V120H78.3105V119.625C78.5139 119.572 78.6929 119.465 78.8219 119.32C78.9285 119.151 78.9776 118.96 78.9634 118.768V105.219C78.9767 105.031 78.9276 104.844 78.8219 104.68C78.6929 104.534 78.5139 104.428 78.3105 104.375V104H83.6826V104.375C83.5291 104.419 83.3976 104.506 83.3103 104.624C83.223 104.741 83.1853 104.881 83.2035 105.019C83.2107 105.206 83.2596 105.389 83.3475 105.56L87.1481 113.829L90.9934 105.699C91.1279 105.452 91.2119 105.186 91.2417 104.914C91.2521 104.849 91.2469 104.784 91.2265 104.721C91.2061 104.658 91.171 104.599 91.1232 104.549C91.0754 104.498 91.0161 104.457 90.9489 104.427C90.8817 104.397 90.8081 104.38 90.7328 104.375V104H96.0005V104.375C95.7977 104.428 95.6194 104.534 95.4916 104.68C95.3839 104.844 95.3339 105.031 95.3477 105.219V118.768C95.3329 118.96 95.3829 119.152 95.4916 119.32C95.6194 119.466 95.7977 119.572 96.0005 119.625V120H91.6662V119.625C91.8647 119.574 92.039 119.47 92.1627 119.326C92.2725 119.156 92.3233 118.963 92.3091 118.768V108.946L86.8924 120Z" fill="#4E4438"/>
</g>
<defs>
<clipPath id="clip0_1117_24507">
<rect width="96" height="120" fill="white"/>
</clipPath>
</defs>
</svg>
