<svg width="0" height="0" class="hidden">
  <symbol xmlns="http://www.w3.org/2000/svg" viewBox="0 0 16 10" id="ic_arr_down">
    <path d="M15 1.25L8 8.25L1 1.25002" stroke="currentColor" stroke-width="2" stroke-linecap="round" fill="none"></path>
  </symbol>
  <symbol xmlns="http://www.w3.org/2000/svg" viewBox="0 0 18 38" id="ic_arr_left">
    <path d="M14.8378 1.0517C15.3615 0.409832 16.3064 0.31406 16.9483 0.83779C17.5902 1.36152 17.6859 2.30643 17.1622 2.9483L14.8378 1.0517ZM2 19.1581L0.84149 20.1109L0.060955 19.1618L0.83779 18.2098L2 19.1581ZM17.0101 35.0472C17.5363 35.687 17.4442 36.6323 16.8044 37.1585C16.1646 37.6847 15.2193 37.5926 14.6931 36.9528L17.0101 35.0472ZM17.1622 2.9483L3.16221 20.1064L0.83779 18.2098L14.8378 1.0517L17.1622 2.9483ZM14.6931 36.9528L0.84149 20.1109L3.15851 18.2053L17.0101 35.0472L14.6931 36.9528Z" fill="currentColor"></path>
  </symbol>
  <symbol xmlns="http://www.w3.org/2000/svg" viewBox="0 0 20 20" id="ic_calendar">
    <path d="M6.4 1.00002V4.60002M13.6 1.00002V4.60002M1 8.20002H19M4.6 2.80002H15.4C17.3882 2.80002 19 4.41179 19 6.40002V15.4C19 17.3882 17.3882 19 15.4 19H4.6C2.61177 19 1 17.3882 1 15.4V6.40002C1 4.41179 2.61177 2.80002 4.6 2.80002Z" stroke="currentColor" stroke-linecap="round" stroke-linejoin="round" fill="none"></path>
  </symbol>
  <symbol xmlns="http://www.w3.org/2000/svg" viewBox="0 0 30 30" id="ic_cart">
    <path d="M6.57576 1.57718L2.00749 0.0838096C1.60811 -0.0525056 1.22181 -0.0258395 0.826272 0.188116C0.133249 0.5939 -0.229648 1.53199 0.158873 2.37926C0.364213 2.77103 0.672481 3.03898 1.08316 3.18144L4.62374 4.35521L5.90836 17.4986L5.08747 22.2004C4.93774 23.1822 5.65241 23.985 6.6259 24.0688H25.9267C26.7344 24.0584 27.4805 23.4278 27.5184 22.4646C27.5077 21.6202 26.8393 20.897 25.9267 20.8636H8.47451L8.83484 18.7279H27.2113C27.9091 18.7189 28.5361 18.1789 28.6996 17.391L29.9842 9.85906C30.1086 9.0011 29.4844 8.16652 28.5962 7.98746L7.91051 5.58441L7.65358 2.96619C7.58334 2.36831 7.18053 1.78388 6.57576 1.57718Z" fill="currentColor"></path>
    <path d="M11.3696 27.4958C11.3696 26.1128 10.2923 24.9917 8.96331 24.9917C7.63433 24.9917 6.55698 26.1128 6.55698 27.4958C6.55698 28.8788 7.63442 30 8.96331 30C10.2923 30 11.3696 28.8788 11.3696 27.4958Z" fill="currentColor"></path>
    <path d="M25.4943 27.4958C25.4943 26.1128 24.4169 24.9917 23.0879 24.9917C21.759 24.9917 20.6816 26.1128 20.6816 27.4958C20.6816 28.8788 21.759 30 23.0879 30C24.4169 30 25.4943 28.8788 25.4943 27.4958Z" fill="currentColor"></path>
  </symbol>
  <symbol xmlns="http://www.w3.org/2000/svg" viewBox="0 0 16 17" id="ic_check">
    <path d="M1.76762 6.81355C1.41365 6.38961 0.783036 6.33288 0.359093 6.68684C-0.0648513 7.0408 -0.121582 7.67142 0.232382 8.09536L1.76762 6.81355ZM7.3 15L6.53238 15.6409L7.47068 16.7647L8.17622 15.4819L7.3 15ZM15.8762 1.48192C16.1424 0.997998 15.9658 0.38994 15.4819 0.123784C14.998 -0.142372 14.3899 0.0341606 14.1238 0.518081L15.8762 1.48192ZM0.232382 8.09536L6.53238 15.6409L8.06762 14.3591L1.76762 6.81355L0.232382 8.09536ZM8.17622 15.4819L15.8762 1.48192L14.1238 0.518081L6.42378 14.5181L8.17622 15.4819Z" fill="currentColor"></path>
  </symbol>
  <symbol xmlns="http://www.w3.org/2000/svg" viewBox="0 0 24 24" id="ic_close">
    <path d="M2 2L22 22M22 2L2 22" stroke="currentColor" stroke-width="3" stroke-linecap="round" stroke-linejoin="round" fill="none"></path>
  </symbol>
  <symbol xmlns="http://www.w3.org/2000/svg" viewBox="0 0 29 25" id="ic_compare">
    <path fill-rule="evenodd" clip-rule="evenodd" d="M0.541573 0.0987409C0.313471 0.248602 0.137097 0.452524 0.063782 0.651099C-0.0211473 0.881006 -0.0213172 24.1013 0.063612 24.3318C0.137436 24.5323 0.37585 24.7974 0.581233 24.9075C0.811205 25.0308 28.204 25.0308 28.434 24.9075C29.1202 24.5397 29.1975 23.6325 28.5835 23.1517L28.3694 22.984L27.0759 22.9665L25.7824 22.9489V17.6125V12.2761L25.6547 12.0817C25.5845 11.9748 25.4379 11.8336 25.329 11.768C25.1402 11.6543 25.0447 11.6486 23.3178 11.6486C21.6052 11.6486 21.4943 11.655 21.3167 11.7648C21.2133 11.8288 21.073 11.9726 21.0051 12.0845L20.8815 12.288L20.866 17.6215L20.8504 22.955H19.3796H17.9089L17.8938 14.4824L17.8787 6.00988L17.7551 5.80642C17.6872 5.69452 17.547 5.55064 17.4435 5.4867C17.2657 5.37678 17.155 5.37044 15.4041 5.37044C13.6143 5.37044 13.5474 5.37451 13.3927 5.49205C13.3048 5.55896 13.1755 5.70016 13.1053 5.80584L12.9778 5.99802V14.4765V22.955H11.4764H9.97501V17.48C9.97501 12.0613 9.97382 12.0024 9.85767 11.7563C9.79314 11.6195 9.65626 11.4543 9.55354 11.3892C9.37546 11.2762 9.27937 11.2707 7.49795 11.2707C5.6494 11.2707 5.62707 11.2722 5.43665 11.4027C5.02118 11.6874 5.046 11.3033 5.04594 17.4471L5.04583 22.955H3.54441H2.04299L2.04163 11.9828C2.04084 5.60494 2.01868 0.915187 1.98877 0.78259C1.93019 0.52356 1.79398 0.315452 1.57143 0.144955C1.34877 -0.0256006 0.770298 -0.0515851 0.541573 0.0987409Z" fill="currentColor"></path>
  </symbol>
  <symbol xmlns="http://www.w3.org/2000/svg" viewBox="0 0 18 18" id="ic_diameter">
    <path d="M16.667 9C16.667 13.4183 13.0853 17 8.66699 17C4.24871 17 0.666992 13.4183 0.666992 9C0.666992 4.58172 4.24871 1 8.66699 1C13.0853 1 16.667 4.58172 16.667 9Z" fill="var(--color2)"></path>
    <path d="M16.2173 1.9416L1.46028 16.6986M16.667 9C16.667 13.4183 13.0853 17 8.66699 17C4.24871 17 0.666992 13.4183 0.666992 9C0.666992 4.58172 4.24871 1 8.66699 1C13.0853 1 16.667 4.58172 16.667 9Z" stroke="currentColor" fill="none"></path>
  </symbol>
  <symbol xmlns="http://www.w3.org/2000/svg" viewBox="0 0 18 18" id="ic_email">
    <path d="M16.2 1.8H1.8C0.81 1.8 0.00899999 2.61 0.00899999 3.6L0 14.4C0 15.39 0.81 16.2 1.8 16.2H16.2C17.19 16.2 18 15.39 18 14.4V3.6C18 2.61 17.19 1.8 16.2 1.8ZM16.2 5.4L9 9.9L1.8 5.4V3.6L9 8.1L16.2 3.6V5.4Z" fill="currentColor"></path>
  </symbol>
  <symbol xmlns="http://www.w3.org/2000/svg" viewBox="0 0 28 25" id="ic_favorite">
    <path d="M14.3227 3.84201C9.58632 -3.4587 0 0.518491 0 8.4714C0 14.4434 13.1423 23.7853 14.3227 25C15.5113 23.7853 28 14.4434 28 8.4714C28 0.578785 19.068 -3.4587 14.3227 3.84201Z" fill="currentColor"></path>
  </symbol>
  <symbol xmlns="http://www.w3.org/2000/svg" viewBox="0 0 30 30" id="ic_file">
    <path d="M15 0V7.5C15 8.35248 15.3477 9.17005 15.9665 9.77284C16.5854 10.3756 17.4248 10.7143 18.3 10.7143H26V26.7857C26 27.6382 25.6523 28.4558 25.0335 29.0586C24.4146 29.6614 23.5752 30 22.7 30H7.3C6.42479 30 5.58542 29.6614 4.96655 29.0586C4.34768 28.4558 4 27.6382 4 26.7857V3.21429C4 2.3618 4.34768 1.54424 4.96655 0.941443C5.58542 0.338647 6.42479 0 7.3 0H15ZM17.2 0.535714V7.5C17.2 7.78416 17.3159 8.05668 17.5222 8.25761C17.7285 8.45855 18.0083 8.57143 18.3 8.57143H25.45L17.2 0.535714Z" fill="currentColor"></path>
  </symbol>
  <symbol xmlns="http://www.w3.org/2000/svg" viewBox="0 0 17 16" id="ic_height">
    <path d="M8.31344 16.3536C8.5087 16.5488 8.82528 16.5488 9.02055 16.3536L12.2025 13.1716C12.3978 12.9763 12.3978 12.6597 12.2025 12.4645C12.0073 12.2692 11.6907 12.2692 11.4954 12.4645L8.66699 15.2929L5.83857 12.4645C5.6433 12.2692 5.32672 12.2692 5.13146 12.4645C4.9362 12.6597 4.9362 12.9763 5.13146 13.1716L8.31344 16.3536ZM9.02055 -0.353553C8.82528 -0.548816 8.5087 -0.548816 8.31344 -0.353553L5.13146 2.82843C4.9362 3.02369 4.9362 3.34027 5.13146 3.53553C5.32672 3.7308 5.6433 3.7308 5.83857 3.53553L8.66699 0.707107L11.4954 3.53553C11.6907 3.7308 12.0073 3.7308 12.2025 3.53553C12.3978 3.34027 12.3978 3.02369 12.2025 2.82843L9.02055 -0.353553ZM9.16699 16V0H8.16699V16H9.16699Z" fill="currentColor"></path>
  </symbol>
  <symbol xmlns="http://www.w3.org/2000/svg" viewBox="0 0 18 18" id="ic_length">
    <path d="M17.833 1C17.833 0.723858 17.6091 0.5 17.333 0.5H12.833C12.5569 0.5 12.333 0.723858 12.333 1C12.333 1.27614 12.5569 1.5 12.833 1.5H16.833V5.5C16.833 5.77614 17.0569 6 17.333 6C17.6091 6 17.833 5.77614 17.833 5.5V1ZM0.833008 17C0.833008 17.2761 1.05687 17.5 1.33301 17.5H5.83301C6.10915 17.5 6.33301 17.2761 6.33301 17C6.33301 16.7239 6.10915 16.5 5.83301 16.5H1.83301V12.5C1.83301 12.2239 1.60915 12 1.33301 12C1.05687 12 0.833008 12.2239 0.833008 12.5V17ZM16.9795 0.646447L0.979454 16.6464L1.68656 17.3536L17.6866 1.35355L16.9795 0.646447Z" fill="currentColor"></path>
  </symbol>
  <symbol xmlns="http://www.w3.org/2000/svg" viewBox="0 0 27 24" id="ic_like">
    <path d="M12.8595 4.22813L12.8595 4.22814C11.6496 5.89928 10.4144 7.57311 10.119 7.93979L10.119 7.9398C9.8167 8.31496 9.06329 9.12654 8.44271 9.74943C8.13647 10.0568 7.85095 10.3506 7.63811 10.5758C7.5314 10.6886 7.44495 10.7821 7.38397 10.8505C7.37889 10.8562 7.37406 10.8617 7.36948 10.8668C7.36661 10.9075 7.36367 10.96 7.36079 11.0259C7.35196 11.2276 7.34468 11.5299 7.33895 11.9495C7.32751 12.7874 7.3225 14.0755 7.3225 15.9228V20.883L7.40541 20.9938C7.48253 21.0969 7.84095 21.4657 8.26598 21.8773C8.68409 22.2822 9.0941 22.6587 9.2501 22.7767C9.51073 22.9737 10.0469 23.2459 10.4694 23.385C10.5538 23.4128 10.6581 23.4423 11.3162 23.4605C11.9651 23.4784 13.0988 23.4856 15.2021 23.495C16.7835 23.502 17.9472 23.5017 18.7515 23.4936C19.5808 23.4852 19.9809 23.468 20.0808 23.4514L20.0809 23.4514C20.622 23.3615 21.1417 23.0934 21.5745 22.6665C21.6793 22.5633 21.7894 22.4422 21.8803 22.3325C21.9256 22.2778 21.9639 22.2286 21.9932 22.1882C22.0078 22.1681 22.019 22.1516 22.0272 22.1389C22.0324 22.1309 22.0354 22.1258 22.0369 22.1232C22.0376 22.122 22.038 22.1214 22.038 22.1213C22.0383 22.1206 22.043 22.1113 22.0543 22.0875C22.065 22.0649 22.0792 22.0345 22.0971 21.9961C22.1327 21.9194 22.1813 21.8139 22.2416 21.6825C22.3621 21.4197 22.5282 21.0555 22.7278 20.6162C23.1271 19.7376 23.6602 18.5599 24.2306 17.2953L24.6864 17.5009L24.2306 17.2953C24.8699 15.8781 25.3996 14.684 25.7789 13.8077C25.9687 13.3692 26.1199 13.0122 26.2281 12.7474C26.2823 12.6148 26.3248 12.5076 26.3556 12.4259C26.371 12.3851 26.3828 12.3524 26.3914 12.3273C26.3956 12.3149 26.3988 12.3052 26.401 12.298C26.4032 12.2911 26.404 12.288 26.404 12.288L26.404 12.288C26.4938 11.9424 26.5116 11.7717 26.4937 10.8274C26.483 10.2607 26.4769 10.0237 26.4545 9.87012C26.4383 9.75889 26.4185 9.71057 26.3193 9.50406C26.1296 9.10915 25.7448 8.71016 25.4395 8.55627L25.6627 8.1135L25.4395 8.55626C25.2913 8.48156 25.2116 8.44442 25.1088 8.41564C25.0026 8.3859 24.8514 8.35998 24.572 8.34142C24.0031 8.30363 23.0153 8.30182 21.0227 8.30144C19.9965 8.30122 19.063 8.29778 18.3855 8.29238C18.0471 8.28969 17.7712 8.2865 17.5792 8.28295C17.4837 8.28118 17.4063 8.27928 17.3514 8.2772C17.325 8.2762 17.2982 8.27495 17.2756 8.27323C17.2663 8.27252 17.2462 8.27092 17.2238 8.2675C17.216 8.26631 17.186 8.26181 17.1498 8.25077C17.1354 8.24637 17.0881 8.23176 17.0345 8.19914L17.0334 8.19849C17.0097 8.18416 16.7942 8.05405 16.7942 7.77172C16.7942 7.72381 16.8014 7.6865 16.8032 7.67739L16.8033 7.67686C16.8061 7.66217 16.809 7.65054 16.8106 7.6443C16.8121 7.63862 16.8136 7.63343 16.8149 7.62901C16.8165 7.62352 16.8178 7.6192 16.8187 7.61657C16.822 7.60612 16.8253 7.59665 16.8274 7.59078C16.8319 7.57794 16.8376 7.56278 16.8435 7.54721C16.8556 7.51526 16.8727 7.47097 16.8939 7.41678C16.9365 7.30787 16.9977 7.15324 17.0729 6.96474C17.2233 6.58744 17.4305 6.07155 17.6583 5.50797C18.1409 4.31426 18.3818 3.68899 18.4887 3.26627C18.5831 2.89322 18.5675 2.70687 18.4984 2.37276C18.3528 1.66849 18.0073 1.13803 17.5557 0.831655L17.5557 0.831629C17.1495 0.556046 16.578 0.440594 16.1488 0.529447C15.8615 0.588978 15.4507 0.808871 15.2489 1.00849M12.8595 4.22813L15.2489 1.00849M12.8595 4.22813C13.4651 3.39153 14.0418 2.60526 14.4828 2.01272C14.7034 1.71626 14.8892 1.46951 15.0273 1.28964C15.0964 1.19952 15.1523 1.12786 15.1941 1.07581C15.2227 1.04007 15.2391 1.02066 15.2461 1.01227C15.2508 1.00674 15.2514 1.00599 15.2489 1.00849M12.8595 4.22813L15.2489 1.00849M1.5558 22.3845L1.55582 22.3845C1.64594 22.4256 1.70366 22.4436 1.78938 22.4558C1.89245 22.4704 2.04014 22.4768 2.31648 22.4768C2.63233 22.4768 2.7603 22.4716 2.84876 22.4559C2.91441 22.4443 2.96664 22.4261 3.12618 22.3464L3.34956 22.7937L3.12619 22.3464C3.47485 22.1723 3.83274 21.806 4.01128 21.4303L4.13295 21.1743M1.5558 22.3845L4.13295 21.1743M1.5558 22.3845C1.41615 22.3209 1.22721 22.1866 1.04106 22.0059C0.855946 21.8263 0.708338 21.6345 0.630093 21.4821C0.630089 21.4821 0.630084 21.4821 0.63008 21.4821L0.5 21.2288V16.3118V11.3992L0.61775 11.1788C0.888841 10.6714 1.28178 10.3421 1.78969 10.1786M1.5558 22.3845L1.78969 10.1786M4.13295 21.1743V21.2871H4.63295L4.18137 21.0725L4.13295 21.1743ZM1.78969 10.1786C1.8702 10.1528 2.10206 10.1243 2.39311 10.1351L1.78969 10.1786ZM7.30931 10.9375C7.30743 10.9401 7.30635 10.9415 7.30633 10.9414C7.30631 10.9414 7.30723 10.9401 7.30931 10.9375ZM3.97934 11.1441L4.13295 11.4518L2.39314 10.1351C3.11702 10.162 3.66525 10.515 3.97934 11.1441Z" stroke="currentColor" fill="none"></path>
  </symbol>
  <symbol xmlns="http://www.w3.org/2000/svg" viewBox="0 0 27 24" id="ic_like2">
    <path fill-rule="evenodd" clip-rule="evenodd" d="M16.0475 0.0398297C15.6668 0.118683 15.1678 0.384845 14.8963 0.65401C14.7665 0.782554 13.6677 2.25899 12.4545 3.93494C11.2411 5.61088 10.015 7.27194 9.72964 7.62609C9.44424 7.9803 8.70576 8.77697 8.0885 9.39653C7.47124 10.0161 6.93388 10.5845 6.89434 10.6597C6.84255 10.7583 6.8225 12.2281 6.8225 15.9228V21.0493L7.00508 21.2934C7.21839 21.5784 8.57877 22.8959 8.94858 23.1755C9.26216 23.4126 9.85035 23.7076 10.3131 23.8599C10.6362 23.9663 10.9992 23.9763 15.1999 23.995C18.3637 24.0091 19.8663 23.9939 20.1628 23.9446C20.8127 23.8367 21.4247 23.5166 21.9257 23.0225C22.1605 22.7908 22.411 22.4887 22.4821 22.351C22.5533 22.2133 23.5452 20.0308 24.6864 17.5009C25.9661 14.6641 26.8099 12.7144 26.8879 12.4138C26.9963 11.9968 27.0116 11.7666 26.9936 10.818C26.9728 9.72046 26.9706 9.70525 26.77 9.28758C26.5395 8.8077 26.0819 8.32012 25.6646 8.10978C25.0648 7.80745 24.9864 7.80219 21.0228 7.80144C18.9721 7.801 17.2942 7.78767 17.2942 7.77172C17.2942 7.75582 17.6666 6.82147 18.1219 5.69537C19.077 3.33258 19.1488 3.04884 18.9881 2.27151C18.8211 1.46432 18.4147 0.810215 17.8364 0.417888C17.3258 0.0714337 16.6176 -0.0782 16.0475 0.0398297ZM1.63651 9.70269C0.999258 9.90777 0.506007 10.3269 0.17675 10.9432L0 11.274V16.3118V21.3497L0.185318 21.7106C0.405986 22.1402 0.930271 22.649 1.34857 22.8395C1.59837 22.9533 1.76439 22.9768 2.31648 22.9768C2.92726 22.9768 3.01345 22.9616 3.34956 22.7937C3.80188 22.5679 4.2382 22.1176 4.46286 21.645L4.63295 21.2871V16.3105V11.3339L4.42669 10.9208C4.02933 10.1249 3.31465 9.66902 2.41167 9.63547C2.10127 9.62396 1.80006 9.65012 1.63651 9.70269Z" fill="currentColor"></path>
  </symbol>
  <symbol xmlns="http://www.w3.org/2000/svg" viewBox="0 0 18 18" id="ic_location">
    <path d="M8.99922 0C5.51622 0 2.69922 2.817 2.69922 6.3C2.69922 11.025 8.99922 18 8.99922 18C8.99922 18 15.2992 11.025 15.2992 6.3C15.2992 2.817 12.4822 0 8.99922 0ZM8.99922 8.55C8.40248 8.55 7.83019 8.31295 7.40823 7.89099C6.98627 7.46903 6.74922 6.89674 6.74922 6.3C6.74922 5.70326 6.98627 5.13097 7.40823 4.70901C7.83019 4.28705 8.40248 4.05 8.99922 4.05C9.59596 4.05 10.1683 4.28705 10.5902 4.70901C11.0122 5.13097 11.2492 5.70326 11.2492 6.3C11.2492 6.89674 11.0122 7.46903 10.5902 7.89099C10.1683 8.31295 9.59596 8.55 8.99922 8.55Z" fill="currentColor"></path>
  </symbol>
  <symbol xmlns="http://www.w3.org/2000/svg" viewBox="0 0 31 12" id="ic_menu">
    <path d="M29.9307 1H1.93066M21.9307 11H1.93066M16.9307 6H1.93066" stroke="currentColor" stroke-width="2" stroke-linecap="round" fill="none"></path>
  </symbol>
  <symbol xmlns="http://www.w3.org/2000/svg" viewBox="0 0 18 18" id="ic_phone">
    <path d="M16.0714 0H1.92857C1.41708 0 0.926543 0.203188 0.564865 0.564866C0.203188 0.926543 0 1.41708 0 1.92857L0 16.0714C0 16.5829 0.203188 17.0735 0.564865 17.4351C0.926543 17.7968 1.41708 18 1.92857 18H16.0714C16.5829 18 17.0735 17.7968 17.4351 17.4351C17.7968 17.0735 18 16.5829 18 16.0714V1.92857C18 1.41708 17.7968 0.926543 17.4351 0.564866C17.0735 0.203188 16.5829 0 16.0714 0ZM15.4129 12.3497L14.8102 14.9613C14.7796 15.0941 14.7049 15.2126 14.5983 15.2974C14.4917 15.3823 14.3595 15.4285 14.2232 15.4286C7.79464 15.4286 2.57143 10.217 2.57143 3.77679C2.57621 3.64181 2.62419 3.51193 2.70831 3.40626C2.79242 3.30059 2.90824 3.22471 3.03871 3.18978L5.65031 2.5871C5.69486 2.57768 5.74019 2.57243 5.78571 2.57143C5.90226 2.57731 6.0151 2.61428 6.11253 2.67851C6.20997 2.74273 6.28843 2.83186 6.33978 2.93665L7.54513 5.74915C7.57466 5.82498 7.59109 5.90527 7.59375 5.98661C7.58394 6.16502 7.50461 6.33248 7.37277 6.45308L5.8504 7.69862C6.77283 9.65367 8.34633 11.2272 10.3014 12.1496L11.5469 10.6272C11.6675 10.4954 11.835 10.4161 12.0134 10.4062C12.0947 10.4089 12.175 10.4253 12.2508 10.4549L15.0633 11.6602C15.1682 11.7115 15.2574 11.7899 15.3216 11.8874C15.3858 11.9848 15.4228 12.0977 15.4286 12.2143C15.4278 12.2598 15.4225 12.3052 15.4129 12.3497Z" fill="currentColor"></path>
  </symbol>
  <symbol xmlns="http://www.w3.org/2000/svg" viewBox="0 0 20 20" id="ic_plus">
    <path d="M13 0H7V6.9961H0V13.0039H7V20H13V13.0039H20V6.9961H13V0Z" fill="currentColor"></path>
  </symbol>
  <symbol xmlns="http://www.w3.org/2000/svg" viewBox="0 0 20 20" id="ic_minus">
    <path d="M0 7H20V13H0V7Z" fill="currentColor"></path>
  </symbol>
  <symbol xmlns="http://www.w3.org/2000/svg" viewBox="0 0 20 20" id="ic_search">
    <path fill-rule="evenodd" clip-rule="evenodd" d="M14.3251 12.8985L19.7048 18.2783C19.8939 18.4676 20.0001 18.7242 20 18.9917C19.9999 19.2592 19.8935 19.5157 19.7043 19.7048C19.5151 19.8939 19.2585 20.0001 18.991 20C18.7235 19.9999 18.467 19.8935 18.2779 19.7043L12.8981 14.3244C11.2899 15.5701 9.26759 16.1563 7.24253 15.9638C5.21748 15.7712 3.34182 14.8145 1.99713 13.2881C0.652446 11.7617 -0.0602623 9.78035 0.00399614 7.74712C0.0682545 5.7139 0.904653 3.78152 2.34304 2.3431C3.78143 0.904675 5.71376 0.0682562 7.74693 0.00399624C9.7801 -0.0602638 11.7614 0.652463 13.2877 1.99718C14.8141 3.3419 15.7708 5.21761 15.9634 7.24271C16.1559 9.26782 15.5697 11.2902 14.3241 12.8985H14.3251ZM8.00037 13.9994C9.5916 13.9994 11.1176 13.3673 12.2428 12.2421C13.368 11.1169 14.0001 9.59084 14.0001 7.99957C14.0001 6.40831 13.368 4.88222 12.2428 3.75702C11.1176 2.63183 9.5916 1.9997 8.00037 1.9997C6.40915 1.9997 4.88309 2.63183 3.75793 3.75702C2.63276 4.88222 2.00065 6.40831 2.00065 7.99957C2.00065 9.59084 2.63276 11.1169 3.75793 12.2421C4.88309 13.3673 6.40915 13.9994 8.00037 13.9994Z" fill="currentColor"></path>
  </symbol>
  <symbol xmlns="http://www.w3.org/2000/svg" viewBox="0 0 24 24" id="ic_star">
    <path fill-rule="evenodd" clip-rule="evenodd" d="M11.2704 0.152361C11.0699 0.242754 10.7951 0.423973 10.6594 0.555059C10.5238 0.686145 9.77884 2.11181 9.00392 3.72326C8.2291 5.3347 7.57646 6.67399 7.55361 6.69938C7.53076 6.72477 6.13929 6.95168 4.46155 7.20376C1.2514 7.68589 1.16388 7.70521 0.704434 8.03639C0.0658673 8.49671 -0.204331 9.76525 0.171652 10.538C0.264605 10.729 1.34436 11.9027 2.5711 13.1462C3.8908 14.4841 4.80154 15.4894 4.80154 15.6083C4.80154 15.7189 4.58591 17.0942 4.32238 18.6645C4.05876 20.2349 3.84208 21.7471 3.84083 22.0252C3.8353 23.2557 4.98463 24.2233 6.13314 23.955C6.34929 23.9044 7.73503 23.2016 9.21246 22.393C10.6899 21.5844 11.9468 20.9228 12.0055 20.9228C12.0643 20.9228 13.3074 21.5787 14.7681 22.3803C16.2288 23.1819 17.5262 23.8716 17.6513 23.913C17.9908 24.025 18.7482 23.9864 19.0154 23.8434C19.3589 23.6597 19.8212 23.1905 19.9899 22.8544C20.2245 22.3874 20.1676 21.6418 19.6677 18.6322C19.4095 17.0777 19.1982 15.7162 19.1982 15.6066C19.1982 15.4898 20.1229 14.47 21.4287 13.1462C22.6554 11.9027 23.7352 10.729 23.8281 10.538C24.2038 9.76601 23.9357 8.50453 23.2953 8.03097C22.8644 7.71226 22.424 7.61449 19.5112 7.1902C18.0481 6.97707 16.7478 6.76905 16.6217 6.72792C16.4483 6.67139 16.0517 5.94043 14.9918 3.72326C14.2214 2.11181 13.4789 0.685819 13.3417 0.554408C12.7724 0.00857826 11.945 -0.152023 11.2704 0.152361ZM13.6691 4.85582C15.1499 7.87655 15.1917 7.94698 15.6512 8.19808C16.0269 8.40339 16.7355 8.5462 19.1982 8.91276C22.0767 9.34107 22.2779 9.38545 22.3073 9.59792C22.3313 9.77078 21.8108 10.3546 20.1327 12.0372C18.9194 13.2538 17.8372 14.4304 17.7279 14.6518C17.4457 15.2232 17.4727 15.6377 17.999 18.8068C18.5378 22.0512 18.5513 22.225 18.2655 22.225C18.1541 22.225 16.8513 21.5542 15.3705 20.7341C11.7567 18.7332 12.2517 18.7331 8.62898 20.7361C7.14789 21.5551 5.8452 22.225 5.73399 22.225C5.44856 22.225 5.46212 22.0503 6.00075 18.8068C6.52706 15.6377 6.55408 15.2232 6.27188 14.6518C6.16255 14.4304 5.0804 13.2538 3.86712 12.0372C2.19574 10.3613 1.66859 9.77046 1.69248 9.59944C1.7219 9.38892 1.93556 9.34161 4.85371 8.90028C7.47589 8.50366 8.05509 8.38375 8.42534 8.16032C8.84451 7.90737 8.94414 7.73407 10.3553 4.80276C11.4022 2.62823 11.8898 1.7204 11.9999 1.74091C12.0883 1.75729 12.8151 3.11373 13.6691 4.85582Z" fill="currentColor"></path>
  </symbol>
  <symbol xmlns="http://www.w3.org/2000/svg" viewBox="0 0 24 24" id="ic_star2">
    <path fill-rule="evenodd" clip-rule="evenodd" d="M11.6821 0.0743269C11.5975 0.118128 11.4899 0.211735 11.4431 0.282358C11.3962 0.353031 10.6148 1.99415 9.7066 3.92933C8.79833 5.8645 8.04995 7.4534 8.04348 7.46025C8.03697 7.46704 6.34578 7.72935 4.28526 8.04315C1.78302 8.42422 0.484369 8.64184 0.374773 8.69839C0.187364 8.7951 -0.000374446 9.12956 5.60875e-07 9.36604C0.000141189 9.44828 0.0475796 9.59479 0.105471 9.6917C0.163363 9.78855 1.41832 11.1035 2.89435 12.6139C4.37034 14.1242 5.57833 15.3848 5.5787 15.4152C5.57912 15.4457 5.29107 17.2383 4.93861 19.399L4.29782 23.3275L4.38838 23.5568C4.45382 23.7226 4.53051 23.8177 4.66514 23.8998C5.02543 24.1196 4.95717 24.1502 8.63665 22.1186L12 20.2615L15.3633 22.1221C18.5984 23.9118 18.7365 23.9829 18.9845 23.9837C19.3138 23.985 19.5078 23.8497 19.6202 23.5406L19.7008 23.3192L19.0607 19.3948C18.7086 17.2365 18.4209 15.4457 18.4213 15.4152C18.4217 15.3848 19.6296 14.1242 21.1056 12.6139C22.5817 11.1035 23.8366 9.78855 23.8945 9.6917C23.9524 9.59479 23.9999 9.44828 24 9.36604C24.0004 9.12956 23.8126 8.7951 23.6252 8.69839C23.5156 8.64184 22.217 8.42422 19.7147 8.04315C17.6542 7.72935 15.963 7.46704 15.9565 7.46025C15.95 7.4534 15.2017 5.8645 14.2934 3.92933C13.3852 1.99415 12.6035 0.352637 12.5564 0.281521C12.3791 0.0143339 11.9806 -0.0801093 11.6821 0.0743269Z" fill="currentColor"></path>
  </symbol>
  <symbol xmlns="http://www.w3.org/2000/svg" viewBox="0 0 18 18" id="ic_time">
    <path d="M8.991 0C4.023 0 0 4.032 0 9C0 13.968 4.023 18 8.991 18C13.968 18 18 13.968 18 9C18 4.032 13.968 0 8.991 0ZM11.961 13.239L8.1 9.369V4.5H9.9V8.631L13.239 11.97L11.961 13.239Z" fill="currentColor"></path>
  </symbol>
  <symbol xmlns="http://www.w3.org/2000/svg" viewBox="0 0 17 16" id="ic_width">
    <path d="M16.6866 8.35355C16.8818 8.15829 16.8818 7.84171 16.6866 7.64645L13.5046 4.46447C13.3093 4.2692 12.9927 4.2692 12.7975 4.46447C12.6022 4.65973 12.6022 4.97631 12.7975 5.17157L15.6259 8L12.7975 10.8284C12.6022 11.0237 12.6022 11.3403 12.7975 11.5355C12.9927 11.7308 13.3093 11.7308 13.5046 11.5355L16.6866 8.35355ZM-0.0205456 7.64645C-0.215808 7.84171 -0.215808 8.15829 -0.0205456 8.35355L3.16143 11.5355C3.3567 11.7308 3.67328 11.7308 3.86854 11.5355C4.0638 11.3403 4.0638 11.0237 3.86854 10.8284L1.04011 8L3.86854 5.17157C4.0638 4.97631 4.0638 4.65973 3.86854 4.46447C3.67328 4.2692 3.3567 4.2692 3.16143 4.46447L-0.0205456 7.64645ZM16.333 7.5L0.333008 7.5L0.333008 8.5L16.333 8.5V7.5Z" fill="currentColor"></path>
  </symbol>
  <symbol xmlns="http://www.w3.org/2000/svg" viewBox="0 0 70 70" id="ic_zoom">
    <path fill-rule="evenodd" clip-rule="evenodd" d="M27.9597 0.15688C20.9494 0.882127 14.2234 4.1206 9.15765 9.20997C4.04203 14.3493 0.846999 21.1671 0.143046 28.4459C-1.24627 42.8125 7.60936 56.4988 21.2719 61.1006C30.3614 64.1619 40.1842 62.881 48.1385 57.5968C48.8916 57.0965 49.0129 57.0055 49.33 56.76L56.1044 63.5598C58.6277 66.1032 60.032 67.7013 61.8337 69.0089C66.7343 72.2051 72.6438 67.1202 68.7225 61.5995C68.0315 60.5825 65.9436 58.258 63.4212 55.7156L56.6809 48.8873C62.6083 40.643 63.825 31.0909 60.6241 21.4351C57.7435 12.7463 51.1354 5.66785 42.7335 2.27175C38.0748 0.388604 32.8918 -0.35335 27.9597 0.15688ZM32.3965 17.0696C33.105 17.3674 33.8414 18.0874 34.1719 18.8055C34.4133 19.33 34.4397 19.8083 34.4426 23.7088L34.4458 28.0309L38.7338 28.0341C42.6035 28.037 43.078 28.0636 43.5983 28.307C44.7894 28.864 45.5441 30.053 45.5441 31.3724C45.5441 32.6919 44.7894 33.8809 43.5983 34.4379C43.078 34.6812 42.6035 34.7078 38.7338 34.7107L34.4458 34.7139L34.4426 39.036C34.4397 42.9366 34.4133 43.4148 34.1719 43.9393C33.2069 46.0357 30.4976 46.5676 28.843 44.9852C27.8538 44.0392 27.8222 43.8563 27.8187 39.036L27.8156 34.7139L23.5276 34.7107C19.6579 34.7078 19.1834 34.6812 18.663 34.4379C16.5832 33.4652 16.0555 30.7343 17.6254 29.0665C18.5639 28.0694 18.7453 28.0376 23.5276 28.0341L27.8156 28.0309V23.7405C27.8156 19.0078 27.8458 18.8125 28.7238 17.8798C29.6395 16.907 31.1941 16.564 32.3965 17.0696Z" fill="currentColor"></path>
  </symbol>
</svg>